# xmcd
#
# Track frame offsets:
#	150
#	35222
#	55220
#	76027
#	110780
#	129130
#	152135
#
# Disc length: 2722 seconds
# Revision: 2
# Processed by: cddbd v1.5.2PL0 Copyright (c) Steve Scherf et al.
# Submitted via: dBpowerAMP V12.0
#
DISCID=540aa007
DTITLE=Canned Heat and John Lee Hooker - Hooker 'N Heat [MFSL UDCD 2-676]
DYEAR=1971
DGENRE=Blues
TTITLE0=The World Today
TTITLE1=I Got My Eyes On You
TTITLE2=Whiskey And Wimmen'
TTITLE3=Just You And Me
TTITLE4=Let's Make It
TTITLE5=Peavine
TTITLE6=Boogie Chillen No. 2
EXTD=
EXTT0=
EXTT1=
EXTT2=
EXTT3=
EXTT4=
EXTT5=
EXTT6=
PLAYORDER=
